<?xml version="1.0" encoding="iso-8859-1"?>
<!-- Uploaded to: SVG Repo, www.svgrepo.com, Generator: SVG Repo Mixer Tools -->
<svg height="800px" width="800px" version="1.1" id="Layer_1" xmlns="http://www.w3.org/2000/svg" xmlns:xlink="http://www.w3.org/1999/xlink" 
	 viewBox="0 0 502 502" xml:space="preserve">
<g>
	<g>
		<polygon style="fill:#FFF9E6;" points="492,146 419,146 463.148,273 492,273 		"/>
		<polygon style="fill:#FFF9E6;" points="10,146 10,273 111.148,273 67,146 		"/>
		<polygon style="fill:#5CC9C1;" points="463.148,273 419,146 67,146 111.148,273 140,356 492,356 		"/>
	</g>
	<g>
		<path d="M10,136c-5.523,0-10,4.478-10,10v127c0,5.522,4.477,10,10,10h94.037l26.518,76.283c1.397,4.021,5.188,6.717,9.445,6.717
			h352c3.237,0,6.273-1.566,8.149-4.205c1.876-2.638,2.359-6.021,1.296-9.078L477.21,283H492c5.522,0,10-4.478,10-10V146
			c0-5.522-4.478-10-10-10H10z M282.66,176.879C277.652,183.406,269.47,187,259.621,187c-18.969,0-39.065-13.335-48.959-31h77.111
			C288.659,164.069,286.919,171.329,282.66,176.879z M97.084,263H20V156h39.889L97.084,263z M147.111,346l-26.518-76.283l0,0
			L81.063,156h31.826l26.518,76.284c1.436,4.13,5.307,6.72,9.445,6.72c1.089,0,2.197-0.18,3.284-0.558
			c5.217-1.813,7.976-7.512,6.163-12.729L134.063,156h54.568c10.898,29.067,40.831,51,70.989,51
			c16.209,0,30.026-6.373,38.906-17.945c6.953-9.061,10.144-20.701,9.295-33.055H411.89l41.813,120.283L477.937,346H147.111z
			 M433.063,156H482v107h-11.742L433.063,156z"/>
		<path d="M173.594,269.72c-1.813-5.217-7.513-7.977-12.729-6.162c-5.216,1.813-7.975,7.512-6.162,12.729l13.557,38.998
			c1.436,4.13,5.306,6.72,9.445,6.72c1.089,0,2.197-0.18,3.284-0.558c5.216-1.813,7.975-7.512,6.162-12.729L173.594,269.72z"/>
	</g>
</g>
</svg>