<?xml version="1.0" encoding="iso-8859-1"?>
<!-- Uploaded to: SVG Repo, www.svgrepo.com, Generator: SVG Repo Mixer Tools -->
<svg height="800px" width="800px" version="1.1" id="Layer_1" xmlns="http://www.w3.org/2000/svg" xmlns:xlink="http://www.w3.org/1999/xlink" 
	 viewBox="0 0 502 502" xml:space="preserve">
<g>
	<g>
		<path style="fill:#5CC9C1;" d="M427.124,186.123C427.124,88.853,348.27,10,251,10S74.877,88.853,74.877,186.123
			c0,71.925,43.12,133.77,104.914,161.122L249.111,492l68.356-142.74C381.786,323.027,427.124,259.875,427.124,186.123z"/>
		<path d="M249.111,502c-3.849,0-7.356-2.209-9.019-5.681l-67.75-141.477c-65.405-30.53-107.465-96.346-107.465-168.72
			C64.877,83.494,148.371,0,251,0s186.123,83.494,186.123,186.123c0,37.715-11.224,74.037-32.458,105.039
			c-19.987,29.181-47.526,51.882-79.82,65.845L258.13,496.319C256.468,499.791,252.96,502,249.111,502z M251,20
			C159.399,20,84.877,94.522,84.877,186.123c0,65.714,38.845,125.369,98.961,151.978c2.179,0.965,3.942,2.676,4.972,4.825
			l60.301,125.921l59.336-123.906c1.073-2.24,2.942-4.002,5.243-4.94c62.833-25.627,103.433-86.027,103.433-153.877
			C417.123,94.522,342.601,20,251,20z"/>
	</g>
	<g>
		<circle style="fill:#FFF9E6;" cx="251" cy="186.123" r="72.521"/>
		<path d="M251,268.645c-45.502,0-82.521-37.019-82.521-82.521s37.019-82.521,82.521-82.521c45.503,0,82.521,37.019,82.521,82.521
			S296.503,268.645,251,268.645z M251,123.602c-34.475,0-62.521,28.047-62.521,62.521s28.047,62.521,62.521,62.521
			s62.521-28.047,62.521-62.521S285.475,123.602,251,123.602z"/>
	</g>
	<g>
		<path d="M127.241,239.878c-4.12,0-7.977-2.564-9.428-6.67c-5.336-15.095-8.041-30.937-8.041-47.085
			c0-38.776,15.398-74.937,43.358-101.818c3.981-3.829,10.312-3.702,14.139,0.278c3.828,3.981,3.704,10.312-0.278,14.14
			c-24.001,23.076-37.22,54.115-37.22,87.4c0,13.872,2.321,27.471,6.898,40.419c1.841,5.207-0.888,10.921-6.095,12.762
			C129.472,239.692,128.347,239.878,127.241,239.878z"/>
	</g>
	<g>
		<path d="M207.257,72.364c-4.12,0-7.978-2.565-9.428-6.671c-1.841-5.207,0.889-10.92,6.096-12.761
			c15.091-5.334,30.93-8.038,47.076-8.038c5.522,0,10,4.478,10,10s-4.478,10-10,10c-13.87,0-27.466,2.32-40.411,6.896
			C209.488,72.179,208.363,72.364,207.257,72.364z"/>
	</g>
</g>
</svg>